<svg xmlns="http://www.w3.org/2000/svg" viewBox="0 0 99.75 19.32"><defs><style>.cls-1{fill:#fff;}</style></defs><title>Asset 1</title><g id="Layer_2" data-name="Layer 2"><g id="Layer_1-2" data-name="Layer 1"><path class="cls-1" d="M23.3,14.86c-.43,2.25-3.1,4-7.15,4.25-1.38.1-3.08.12-4.95.12H0V0H12.36c.9,0,1.9,0,2.69.08,3.69.4,6.13,1.79,6.24,4.63C21.43,8.52,16.37,9,16.37,9s4.13-.19,6.17,2.42A4.44,4.44,0,0,1,23.3,14.86Zm-9.29-2c-.16-1.31-1.08-2.05-3.56-2.05h-2V15h2.11C13.16,15,14.18,14.33,14,12.84ZM8.47,3.71V7.33h2c1.62,0,2.81-.32,2.81-1.66s-1.19-2-2.65-2Z"/><path class="cls-1" d="M45.78,13.93v5.32H25.12V.08h9.94V14Z"/><path class="cls-1" d="M71.81,1.56h0V19.23h-9l-7.07-9,0,8.91-8.56,0V0h9.37l7,9.26V.09L71.81,0Z"/><path class="cls-1" d="M91.25,9.48l8.5,9.83H89.16l-5.48-7.55v7.5H73.92l0-19.15h9.79V7.45L89.26.13l10.49,0Z"/></g></g></svg>